<svg width="15" height="14" viewBox="0 0 15 14" fill="none" xmlns="http://www.w3.org/2000/svg">
<path d="M1.70966 13.6781C1.15737 13.6781 0.709656 13.2304 0.709656 12.6781V1.2258C0.709656 0.673515 1.15737 0.2258 1.70966 0.2258H2.76129C3.31357 0.2258 3.76129 0.673515 3.76129 1.2258V12.6781C3.76129 13.2304 3.31357 13.6781 2.76129 13.6781H1.70966ZM4.74936 7.45569C4.67018 7.24163 4.6666 7.00693 4.73923 6.79055L6.71393 0.907584C6.85065 0.500259 7.23229 0.2258 7.66195 0.2258H8.56476C9.24701 0.2258 9.72895 0.89394 9.51368 1.54134L7.76675 6.79484C7.69567 7.00861 7.69884 7.24011 7.77576 7.45184L9.55036 12.3366C9.78728 12.9888 9.3043 13.6781 8.61046 13.6781H7.74732C7.32883 13.6781 6.95461 13.4175 6.80942 13.025L4.74936 7.45569Z" fill="white"/>
<path d="M11.0116 12.3329C11.0116 11.7563 11.293 11.3272 11.8557 11.0453C12.101 10.93 12.3607 10.8723 12.6348 10.8723C13.2841 10.8723 13.7603 11.1222 14.0633 11.6218C14.1931 11.8396 14.258 12.0766 14.258 12.3329C14.258 12.9222 13.9695 13.345 13.3923 13.6012C13.147 13.7165 12.8945 13.7742 12.6348 13.7742C11.9711 13.7742 11.495 13.518 11.2064 13.0055C11.0766 12.7877 11.0116 12.5635 11.0116 12.3329Z" fill="white"/>
</svg>
